<svg width="33" height="33" viewBox="0 0 33 33" fill="none" xmlns="http://www.w3.org/2000/svg">
<path d="M16.5 0.000335693C7.38738 0.000335693 0 7.38739 0 16.5003C0 25.613 7.38738 33.0003 16.5 33.0003C25.6126 33.0003 33 25.613 33 16.5003C33 7.38739 25.6126 0.000335693 16.5 0.000335693Z" fill="#0B0B0B"/>
<path d="M23.4029 1.51405C21.3021 0.544836 18.9654 0.000335693 16.5 0.000335693C14.0346 0.000335693 11.6978 0.544836 9.59737 1.51405L4.36456 27.6768C7.37713 30.9458 11.6922 32.9964 16.4871 33H16.5125C21.3078 32.9964 25.6228 30.9458 28.6351 27.6768L23.4029 1.51405Z" fill="#0B0B0B"/>
<path d="M15.51 27.72H17.49V33H15.51V27.72Z" fill="#ABADAF"/>
<path d="M18.48 25.74V26.73C18.48 27.2768 18.0368 27.72 17.49 27.72H15.51C14.9635 27.72 14.52 27.2768 14.52 26.73V25.74H18.48Z" fill="#3E525C"/>
<path d="M13.86 7.26001H19.14C20.9623 7.26001 22.44 8.73775 22.44 10.56V22.44C22.44 24.2626 20.9623 25.74 19.14 25.74H13.86C12.0374 25.74 10.56 24.2626 10.56 22.44V10.56C10.56 8.73775 12.0374 7.26001 13.86 7.26001Z" fill="#E1E5E7"/>
<path d="M19.8 17.16H13.2C12.8357 17.16 12.54 17.4557 12.54 17.82C12.54 18.1843 12.8357 18.48 13.2 18.48H19.8C20.1643 18.48 20.46 18.1843 20.46 17.82C20.46 17.4557 20.1643 17.16 19.8 17.16ZM19.8 11.88H13.2C12.8357 11.88 12.54 12.1757 12.54 12.54C12.54 12.9043 12.8357 13.2 13.2 13.2H19.8C20.1643 13.2 20.46 12.9043 20.46 12.54C20.46 12.1757 20.1643 11.88 19.8 11.88ZM19.14 9.90001C19.5043 9.90001 19.8 9.60433 19.8 9.24001V7.32634C19.5868 7.28311 19.366 7.26001 19.14 7.26001H18.48V9.24001C18.48 9.60433 18.7757 9.90001 19.14 9.90001ZM19.8 21.12C20.1643 21.12 20.46 20.8243 20.46 20.46C20.46 20.0957 20.1643 19.8 19.8 19.8H13.2C12.8357 19.8 12.54 20.0957 12.54 20.46C12.54 20.8243 12.8357 21.12 13.2 21.12H19.8ZM19.8 14.52H13.2C12.8357 14.52 12.54 14.8157 12.54 15.18C12.54 15.5443 12.8357 15.84 13.2 15.84H19.8C20.1643 15.84 20.46 15.5443 20.46 15.18C20.46 14.8157 20.1643 14.52 19.8 14.52ZM19.8 23.76C19.8 23.3957 19.5043 23.1 19.14 23.1C18.7757 23.1 18.48 23.3957 18.48 23.76V25.74H19.14C19.366 25.74 19.5868 25.7172 19.8 25.6737V23.76ZM16.5 9.90001C16.8643 9.90001 17.16 9.60433 17.16 9.24001V7.26001H15.84V9.24001C15.84 9.60433 16.1357 9.90001 16.5 9.90001ZM16.665 23.1H16.335C16.0617 23.1 15.84 23.3218 15.84 23.595V25.74H17.16V23.595C17.16 23.3218 16.9382 23.1 16.665 23.1ZM13.86 23.1C13.4957 23.1 13.2 23.3957 13.2 23.76V25.6737C13.4132 25.7172 13.6339 25.74 13.86 25.74H14.52V23.76C14.52 23.3957 14.2243 23.1 13.86 23.1ZM13.2 9.24001C13.2 9.60433 13.4957 9.90001 13.86 9.90001C14.2243 9.90001 14.52 9.60433 14.52 9.24001V7.26001H13.86C13.6339 7.26001 13.4132 7.28278 13.2 7.32634V9.24001Z" fill="#BCBDBE"/>
<path d="M15.51 11.88H17.49V13.2H15.51V11.88ZM15.51 14.52H17.49V15.84H15.51V14.52ZM15.51 17.16H17.49V18.48H15.51V17.16ZM15.51 19.8H17.49V21.12H15.51V19.8Z" fill="#CFD1D3"/>
<path d="M19.14 24.42H13.86C12.0374 24.42 10.56 22.9426 10.56 21.12V22.44C10.56 24.2626 12.0374 25.74 13.86 25.74H19.14C20.9623 25.74 22.44 24.2626 22.44 22.44V21.12C22.44 22.9426 20.9623 24.42 19.14 24.42Z" fill="#CACED0"/>
<path d="M13.86 24.42C13.634 24.42 13.4132 24.3972 13.2 24.3537V25.6737C13.3066 25.6951 13.4148 25.7119 13.5251 25.7232C13.635 25.7341 13.7468 25.74 13.86 25.74H14.52V24.42H13.86ZM15.84 24.42H17.16V25.74H15.84V24.42ZM19.8 25.6737V24.3537C19.5868 24.3972 19.3661 24.42 19.14 24.42H18.48V25.74H19.14C19.2532 25.74 19.3651 25.7341 19.475 25.7232C19.5852 25.7119 19.6934 25.6951 19.8 25.6737Z" fill="#B5B6B7"/>
<path d="M15.51 28.71H17.49V33H15.51V28.71Z" fill="#BCBEC0"/>
<path d="M18.48 26.4V26.73C18.48 27.2768 18.0368 27.72 17.49 27.72H15.51C14.9635 27.72 14.52 27.2768 14.52 26.73V26.4H18.48Z" fill="#475F6C"/>
</svg>
